<svg width="944" height="240" viewBox="0 0 944 240" xmlns="http://www.w3.org/2000/svg" font-family="monospace" font-size="15">
<rect x="60" y="20" width="72" height="100" fill="#e8e8e8" opacity="0.5"/>
<rect x="132" y="20" width="72" height="100" fill="#ffcccc" opacity="0.5"/>
<rect x="204" y="20" width="72" height="100" fill="#cce0ff" opacity="0.5"/>
<rect x="276" y="20" width="72" height="100" fill="#cce0ff" opacity="0.5"/>
<rect x="348" y="20" width="72" height="100" fill="#cce0ff" opacity="0.5"/>
<rect x="420" y="20" width="72" height="100" fill="#cce0ff" opacity="0.5"/>
<rect x="492" y="20" width="72" height="100" fill="#cce0ff" opacity="0.5"/>
<rect x="564" y="20" width="72" height="100" fill="#cce0ff" opacity="0.5"/>
<rect x="636" y="20" width="72" height="100" fill="#cce0ff" opacity="0.5"/>
<rect x="708" y="20" width="72" height="100" fill="#cce0ff" opacity="0.5"/>
<rect x="780" y="20" width="72" height="100" fill="#d4edda" opacity="0.5"/>
<rect x="852" y="20" width="72" height="100" fill="#e8e8e8" opacity="0.5"/>
<path d="M 60 40 L 132 40 L 132 40 L 132 120 L 204 120 L 204 120 L 204 40 L 276 40 L 276 40 L 276 120 L 348 120 L 348 120 L 348 40 L 420 40 L 420 40 L 420 120 L 492 120 L 492 120 L 564 120 L 564 120 L 636 120 L 636 120 L 636 40 L 708 40 L 708 40 L 708 120 L 780 120 L 780 120 L 780 40 L 852 40 L 852 40 L 924 40" stroke="#1a4a8a" stroke-width="2.5" fill="none"/>
<line x1="132" y1="20" x2="132" y2="140" stroke="#999" stroke-width="0.5" stroke-dasharray="3,3"/>
<line x1="204" y1="20" x2="204" y2="140" stroke="#999" stroke-width="0.5" stroke-dasharray="3,3"/>
<line x1="276" y1="20" x2="276" y2="140" stroke="#999" stroke-width="0.5" stroke-dasharray="3,3"/>
<line x1="348" y1="20" x2="348" y2="140" stroke="#999" stroke-width="0.5" stroke-dasharray="3,3"/>
<line x1="420" y1="20" x2="420" y2="140" stroke="#999" stroke-width="0.5" stroke-dasharray="3,3"/>
<line x1="492" y1="20" x2="492" y2="140" stroke="#999" stroke-width="0.5" stroke-dasharray="3,3"/>
<line x1="564" y1="20" x2="564" y2="140" stroke="#999" stroke-width="0.5" stroke-dasharray="3,3"/>
<line x1="636" y1="20" x2="636" y2="140" stroke="#999" stroke-width="0.5" stroke-dasharray="3,3"/>
<line x1="708" y1="20" x2="708" y2="140" stroke="#999" stroke-width="0.5" stroke-dasharray="3,3"/>
<line x1="780" y1="20" x2="780" y2="140" stroke="#999" stroke-width="0.5" stroke-dasharray="3,3"/>
<line x1="852" y1="20" x2="852" y2="140" stroke="#999" stroke-width="0.5" stroke-dasharray="3,3"/>
<text x="96" y="32" text-anchor="middle" font-size="14" fill="#444">idle</text>
<text x="168" y="138" text-anchor="middle" font-size="14" fill="#444">start</text>
<text x="240" y="30" text-anchor="middle" font-size="13" fill="#666">D0</text>
<text x="240" y="62" text-anchor="middle" font-size="15" font-weight="bold" fill="#1a4a8a">1</text>
<text x="312" y="136" text-anchor="middle" font-size="13" fill="#666">D1</text>
<text x="312" y="152" text-anchor="middle" font-size="15" font-weight="bold" fill="#1a4a8a">0</text>
<text x="384" y="30" text-anchor="middle" font-size="13" fill="#666">D2</text>
<text x="384" y="62" text-anchor="middle" font-size="15" font-weight="bold" fill="#1a4a8a">1</text>
<text x="456" y="136" text-anchor="middle" font-size="13" fill="#666">D3</text>
<text x="456" y="152" text-anchor="middle" font-size="15" font-weight="bold" fill="#1a4a8a">0</text>
<text x="528" y="136" text-anchor="middle" font-size="13" fill="#666">D4</text>
<text x="528" y="152" text-anchor="middle" font-size="15" font-weight="bold" fill="#1a4a8a">0</text>
<text x="600" y="136" text-anchor="middle" font-size="13" fill="#666">D5</text>
<text x="600" y="152" text-anchor="middle" font-size="15" font-weight="bold" fill="#1a4a8a">0</text>
<text x="672" y="30" text-anchor="middle" font-size="13" fill="#666">D6</text>
<text x="672" y="62" text-anchor="middle" font-size="15" font-weight="bold" fill="#1a4a8a">1</text>
<text x="744" y="136" text-anchor="middle" font-size="13" fill="#666">D7</text>
<text x="744" y="152" text-anchor="middle" font-size="15" font-weight="bold" fill="#1a4a8a">0</text>
<text x="816" y="32" text-anchor="middle" font-size="14" fill="#444">stop</text>
<text x="888" y="32" text-anchor="middle" font-size="14" fill="#444">idle</text>
<text x="54" y="44" text-anchor="end" font-size="14" fill="#333">HIGH</text>
<text x="54" y="124" text-anchor="end" font-size="14" fill="#333">LOW</text>
<line x1="60" y1="40" x2="924" y2="40" stroke="#bbb" stroke-width="0.5" stroke-dasharray="4,4"/>
<line x1="60" y1="120" x2="924" y2="120" stroke="#bbb" stroke-width="0.5" stroke-dasharray="4,4"/>
<line x1="60" y1="170" x2="924" y2="170" stroke="#333" stroke-width="1"/>
<line x1="60" y1="170" x2="60" y2="176" stroke="#333" stroke-width="1"/>
<line x1="132" y1="170" x2="132" y2="176" stroke="#333" stroke-width="1"/>
<text x="132" y="191" text-anchor="middle" font-size="13" fill="#555">t=0</text>
<line x1="204" y1="170" x2="204" y2="176" stroke="#333" stroke-width="1"/>
<line x1="276" y1="170" x2="276" y2="176" stroke="#333" stroke-width="1"/>
<text x="276" y="191" text-anchor="middle" font-size="13" fill="#555">208µs</text>
<line x1="348" y1="170" x2="348" y2="176" stroke="#333" stroke-width="1"/>
<line x1="420" y1="170" x2="420" y2="176" stroke="#333" stroke-width="1"/>
<text x="420" y="191" text-anchor="middle" font-size="13" fill="#555">416µs</text>
<line x1="492" y1="170" x2="492" y2="176" stroke="#333" stroke-width="1"/>
<line x1="564" y1="170" x2="564" y2="176" stroke="#333" stroke-width="1"/>
<text x="564" y="191" text-anchor="middle" font-size="13" fill="#555">624µs</text>
<line x1="636" y1="170" x2="636" y2="176" stroke="#333" stroke-width="1"/>
<line x1="708" y1="170" x2="708" y2="176" stroke="#333" stroke-width="1"/>
<text x="708" y="191" text-anchor="middle" font-size="13" fill="#555">832µs</text>
<line x1="780" y1="170" x2="780" y2="176" stroke="#333" stroke-width="1"/>
<line x1="852" y1="170" x2="852" y2="176" stroke="#333" stroke-width="1"/>
<text x="852" y="191" text-anchor="middle" font-size="13" fill="#555">1040µs</text>
<line x1="924" y1="170" x2="924" y2="176" stroke="#333" stroke-width="1"/>
<text x="472" y="15" text-anchor="middle" font-size="17" font-weight="bold" fill="#222">UART frame: transmitting 'E' (ASCII 69 = 0b01000101) at 9600 baud</text>
<line x1="204" y1="210" x2="780" y2="210" stroke="#666" stroke-width="1"/>
<line x1="204" y1="207" x2="204" y2="213" stroke="#666" stroke-width="1"/>
<line x1="780" y1="207" x2="780" y2="213" stroke="#666" stroke-width="1"/>
<text x="492" y="228" text-anchor="middle" font-size="14" fill="#555">8 data bits (LSB first) ← one bit every 104 µs</text>
</svg>
